<?xml version="1.0" encoding="UTF-8"?>
<!DOCTYPE svg PUBLIC "-//W3C//DTD SVG 1.1//EN" "http://www.w3.org/Graphics/SVG/1.1/DTD/svg11.dtd">
<!-- Creator: CorelDRAW 2018 (64-Bit) -->
<svg xmlns="http://www.w3.org/2000/svg" xml:space="preserve" width="5.53594in" height="0.58374in" version="1.1" style="shape-rendering:geometricPrecision; text-rendering:geometricPrecision; image-rendering:optimizeQuality; fill-rule:evenodd; clip-rule:evenodd"
viewBox="0 0 5535.94 583.74"
 xmlns:xlink="http://www.w3.org/1999/xlink">
 <defs>
  <style type="text/css">
   <![CDATA[
    .fil1 {fill:#2164A2;fill-rule:nonzero}
    .fil2 {fill:url(#id0);fill-rule:nonzero}
    .fil0 {fill:url(#id1);fill-rule:nonzero}
   ]]>
  </style>
  <linearGradient id="id0" gradientUnits="userSpaceOnUse" x1="5092.52" y1="572.52" x2="5092.53" y2="-3.3">
   <stop offset="0" style="stop-opacity:1; stop-color:#395402"/>
   <stop offset="1" style="stop-opacity:1; stop-color:#ACCF67"/>
  </linearGradient>
  <linearGradient id="id1" gradientUnits="userSpaceOnUse" x1="4202.48" y1="572.52" x2="4202.47" y2="11.22">
   <stop offset="0" style="stop-opacity:1; stop-color:#00448D"/>
   <stop offset="1" style="stop-opacity:1; stop-color:#418FD9"/>
  </linearGradient>
 </defs>
 <g id="Layer_x0020_1">
  <metadata id="CorelCorpID_0Corel-Layer"/>
  <path class="fil0" d="M4845.42 479.26c28.72,-11.11 54.96,-28.63 76.53,-51.69l-1.21 0.55 -0.03 0.01c-2.48,1.12 -5,2.23 -7.53,3.32l-0.12 0.05 -0.24 0.11c-2.3,0.98 -4.62,1.95 -6.96,2.91l-0.37 0.15 -0.25 0.1 -0.13 0.05 -0.07 0.03c-2.56,1.05 -5.17,2.08 -7.81,3.09l-0.3 0.12c-2.47,0.95 -4.97,1.88 -7.49,2.79l-0.13 0.05 -0.12 0.04 -0.13 0.05 -0.02 0.01 -0.13 0.05 -0.12 0.04 -0.13 0.05 -0.12 0.04c-2.47,0.89 -4.98,1.75 -7.5,2.62l-0.36 0.12c-2.63,0.89 -5.29,1.76 -7.98,2.61l-0.4 0.13 -0.14 0.04 -0.27 0.08 -0.4 0.12c-2.55,0.8 -5.13,1.58 -7.74,2.33l-0.28 0.08 -0.13 0.04c-2.88,0.83 -5.78,1.64 -8.7,2.42l-0.01 0c-2.81,0.75 -5.63,1.47 -8.49,2.16l-0.3 0.07 -0.23 0.06 -0.06 0.01 -0.3 0.07c-2.86,0.7 -5.75,1.36 -8.65,1.99l-0.17 0.04 -0.13 0.03 -0.6 0.13 -0.01 -0.01 -0.41 0.09c-2.35,0.5 -4.7,0.99 -7.08,1.45l-2.09 0.41c-2.59,0.49 -5.2,0.97 -7.83,1.41l-1.35 0.23c-2.59,0.43 -5.2,0.83 -7.83,1.21l-1.92 0.28c-2.83,0.39 -5.67,0.77 -8.54,1.11l-1.03 0.12c-2.97,0.34 -5.95,0.66 -8.96,0.94l-0.71 0.06c-3.04,0.28 -6.08,0.51 -9.17,0.72l-1.41 0.09c-2.87,0.19 -5.75,0.33 -8.66,0.45l-1.59 0.06c-3.1,0.11 -6.23,0.19 -9.37,0.24l-0.41 0c-3.24,0.04 -6.51,0.04 -9.79,-0l-0.55 -0.01 -0.3 -0c-3.39,-0.06 -6.81,-0.15 -10.25,-0.29l-0.2 -0.01c-3.41,-0.14 -6.83,-0.33 -10.28,-0.57l-0.43 -0.02 -0.2 -0.02 -0.15 -0.01c-3.44,-0.24 -6.91,-0.53 -10.4,-0.86l-0.42 -0.04c-3.43,-0.34 -6.89,-0.72 -10.36,-1.15l-0.81 -0.1c-3.51,-0.44 -7.05,-0.94 -10.59,-1.48l-0.29 -0.04 -0.34 -0.06c-3.54,-0.54 -7.09,-1.13 -10.67,-1.79l-0.65 -0.12c-3.62,-0.66 -7.25,-1.38 -10.91,-2.15l-0.34 -0.07c-3.75,-0.8 -7.53,-1.65 -11.32,-2.56l-0.36 -0.08c-3.75,-0.9 -7.51,-1.87 -11.3,-2.89l-0.35 -0.09c-3.87,-1.05 -7.76,-2.16 -11.67,-3.33l-9.5 -2.89 -3.93 -1.22 -6.71 -2.11c-139.11,-44.04 -273.68,-108.73 -408.17,-136.11l-1.63 -0.33c-102.81,-20.7 -205.61,-19.46 -310.37,29.64 0,0 100.64,-96.41 308.35,-92.63l0 -230.55 -155.56 0 0 210.08 -199.66 0 0 -210.08 -155.56 0 0 561.29 155.56 0 0 -125.43 0 -87.87c152.28,0 261.2,-10.22 412.93,25.89 66.41,15.81 441.61,126.71 457.88,187.4l166.78 0 -39.42 -93.26zm-1484.09 104.48c-43.83,0 -84.32,-7.08 -121.48,-21.24 -37.15,-14.17 -69.36,-34.08 -96.62,-59.74 -27.26,-25.66 -48.65,-56.26 -64.15,-91.81 -15.5,-35.55 -23.25,-74.7 -23.25,-117.46l0 -1.61c0,-40.63 7.61,-78.71 22.71,-114.26 15.24,-35.55 36.09,-66.55 62.68,-93.02 26.59,-26.46 58.4,-47.18 95.55,-62.14 37.02,-14.97 77.25,-22.45 120.55,-22.45 49.71,0 92.61,7.22 128.7,21.65 36.08,14.43 69.09,34.48 99.02,60.14l-91.41 109.85c-20.31,-17.1 -41.03,-30.2 -62.15,-39.29 -21.11,-9.09 -45.57,-13.63 -73.37,-13.63 -20.31,0 -39.15,4.01 -56.53,12.03 -17.37,8.01 -32.48,18.98 -45.3,32.87 -12.83,13.9 -22.99,30.21 -30.47,48.92 -7.48,18.71 -11.23,38.75 -11.23,60.13l0 1.61c0,22.45 3.74,43.3 11.23,62.54 7.48,19.24 18.17,35.69 31.81,49.31 13.63,13.63 29.8,24.32 48.24,32.07 18.58,7.75 39.02,11.63 61.61,11.63 36.48,0 66.42,-7.75 90.07,-23.25l0 -68.15 -110.65 0 0 -113.87 258.19 0 0 252.58c-29.93,24.59 -65.22,45.17 -105.85,61.74 -40.62,16.57 -86.59,24.86 -137.92,24.86zm-915.7 -572.52l145.4 0 231.47 296.69 0 -296.69 153.15 0 0 561.29 -136.58 0 -240.29 -307.91 0 307.91 -153.15 0 0 -561.29zm-259 0l156.36 0 0 561.29 -156.36 0 0 -561.29zm-497.14 0l155.56 0 0 424.98 271.83 0 0 136.31 -427.38 0 0 -561.29zm-493.94 0l155.56 0 0 424.98 271.83 0 0 136.31 -427.38 0 0 -561.29zm-259 0l156.36 0 0 561.29 -156.36 0 0 -561.29zm-936.55 0l164.37 0 97.83 324.75 108.25 -326.35 133.91 0 108.24 326.35 97.83 -324.75 161.17 0 -187.63 565.3 -135.51 0 -113.06 -323.14 -112.26 323.14 -135.51 0 -187.63 -565.3zm4298.99 461.91c-31.28,-13.8 -63.59,-24.69 -96.52,-32.64l0 132.02 -155.56 0 0 -146.16c-5.6,-0.44 -11.3,-0.63 -17.06,-0.6 -20.92,1.4 -41.81,3.94 -62.59,7.65 150.85,-98.81 418.45,1.2 489.63,48.28l-36.33 90.83 -163.58 0 42 -99.38z"/>
  <path class="fil1" d="M4831.56 309.09l-0.05 0 -0.52 -0.04c-4,-0.28 -8.02,-0.59 -12.03,-0.94z"/>
  <path class="fil2" d="M4233.68 243.07c183.17,-47.55 293.94,9.17 420.01,52.88 118.27,41 313.52,67.02 438.83,-26.78l0 303.35 -153.15 0 0 -153.35c76.81,-39.01 121.2,-88.66 121.2,-88.66 -43.32,32.55 -85.74,51.93 -128.27,61.57l-0.21 0.05c-3.2,0.72 -6.4,1.39 -9.6,2.01l-0.3 0.06c-3.17,0.6 -6.33,1.15 -9.49,1.66l-0.36 0.06c-6.49,1.02 -12.99,1.83 -19.5,2.43l-0.04 0c-3.16,0.29 -6.33,0.54 -9.51,0.74l-0.34 0.02 -0.28 0.01c-3.14,0.19 -6.28,0.34 -9.43,0.44l-0.18 0 -0.04 0c-3.28,0.11 -6.57,0.16 -9.85,0.17l-0.01 0c-13.16,0.05 -26.38,-0.66 -39.7,-2l-0.2 -0.02 -0.68 -0.07c-4.1,-0.42 -8.22,-0.92 -12.33,-1.47 -191.13,-38.67 -363.37,-154.85 -576.57,-153.11zm185.87 -55.48l0.04 -0.1c-30.73,-1.19 -61.55,3.06 -91.02,12.67 30.61,-21.85 65.97,-35.74 102.89,-40.68l64.48 -152.26 149.95 0 117.07 277c-112.91,2.76 -207.98,-69.08 -296.4,-90.61l-0.06 -0.01 -0.48 -0.12c-14.39,-3.19 -28.97,-5.14 -43.57,-5.86l-2.91 -0.02zm519.81 -86.05l0 188.7c48.22,-8.58 86.93,-12.65 153.15,-38.46l142.32 218.1 3.21 0 143.13 -219.7 0 322.34 154.76 0 0 -561.29 -164.38 0 -133.91 217.3 -133.91 -217.3 -164.38 0 0 90.31z"/>
 </g>
</svg>
